<svg version="1.0"
    xmlns="http://www.w3.org/2000/svg"
    xmlns:xlink="http://www.w3.org/1999/xlink" width="100%" height="100%" viewBox="0 0 340.000000 250.000000" preserveAspectRatio="xMidYMid meet" color-interpolation-filters="sRGB" style="margin: auto;">
    <rect x="0" y="0" width="100%" height="100%" fill="#f9f4ef" fill-opacity="1"></rect>
    <g fill="#8c7851" transform="translate(92.80000305175781,81.7951889038086)">
        <rect fill="#8c7851" x="0" y="0" width="154.39999389648438" height="5" rx="2"></rect>
        <g fill="#8c7851" transform="translate(0,10)">
            <path d="M8.32-40.11L5.16-40.11Q4.54-40.11 4.1-39.64L4.1-39.64Q3.66-39.2 3.66-38.58L3.66-38.58 3.66-1.49Q3.66-0.88 4.1-0.44L4.1-0.44Q4.54 0 5.16 0L5.16 0 8.32 0Q8.96 0 9.4-0.44L9.4-0.44Q9.84-0.88 9.84-1.49L9.84-1.49 9.84-38.58Q9.84-39.2 9.4-39.64L9.4-39.64Q8.96-40.11 8.32-40.11L8.32-40.11ZM45.06-40.11L21.01-40.11Q20.24-40.11 19.69-39.55L19.69-39.55Q19.16-39.02 19.16-38.23L19.16-38.23 19.16-1.85Q19.16-1.08 19.69-0.56L19.69-0.56Q20.24 0 21.01 0L21.01 0 23.47 0Q24.26 0 24.79-0.56L24.79-0.56Q25.34-1.08 25.34-1.85L25.34-1.85 25.34-32.08Q25.34-32.84 25.87-33.37L25.87-33.37Q26.43-33.93 27.19-33.93L27.19-33.93 38.91-33.93Q39.67-33.93 40.2-33.37L40.2-33.37Q40.75-32.84 40.75-32.08L40.75-32.08 40.75-24.99Q40.75-24.23 40.2-23.67L40.2-23.67Q39.67-23.14 38.91-23.14L38.91-23.14 31.82-23.14Q31.03-23.14 30.5-22.59L30.5-22.59Q29.94-22.06 29.94-21.27L29.94-21.27 29.94-18.81Q29.94-18.05 30.5-17.49L30.5-17.49Q31.03-16.96 31.82-16.96L31.82-16.96 38.91-16.96Q39.67-16.96 40.2-16.41L40.2-16.41Q40.75-15.88 40.75-15.12L40.75-15.12 40.75-1.85Q40.75-1.08 41.28-0.56L41.28-0.56Q41.84 0 42.6 0L42.6 0 45.06 0Q45.82 0 46.38-0.56L46.38-0.56Q46.9-1.08 46.9-1.85L46.9-1.85 46.9-38.23Q46.9-39.02 46.38-39.55L46.38-39.55Q45.82-40.11 45.06-40.11L45.06-40.11ZM77.81-38.23L77.81-8.03Q77.81-7.27 77.26-6.71L77.26-6.71Q76.73-6.18 75.97-6.18L75.97-6.18 64.25-6.18Q63.49-6.18 62.93-6.71L62.93-6.71Q62.4-7.27 62.4-8.03L62.4-8.03 62.4-38.23Q62.4-39.02 61.85-39.55L61.85-39.55Q61.32-40.11 60.53-40.11L60.53-40.11 58.07-40.11Q57.3-40.11 56.75-39.55L56.75-39.55Q56.22-39.02 56.22-38.23L56.22-38.23 56.22-1.85Q56.22-1.08 56.75-0.56L56.75-0.56Q57.3 0 58.07 0L58.07 0 82.12 0Q82.88 0 83.44-0.56L83.44-0.56Q83.96-1.08 83.96-1.85L83.96-1.85 83.96-38.23Q83.96-39.02 83.44-39.55L83.44-39.55Q82.88-40.11 82.12-40.11L82.12-40.11 79.66-40.11Q78.9-40.11 78.34-39.55L78.34-39.55Q77.81-39.02 77.81-38.23L77.81-38.23ZM119.18-40.11L95.13-40.11Q94.37-40.11 93.84-39.55L93.84-39.55Q93.28-39.02 93.28-38.23L93.28-38.23 93.28-1.85Q93.28-1.08 93.84-0.56L93.84-0.56Q94.37 0 95.13 0L95.13 0 97.59 0Q98.38 0 98.91-0.56L98.91-0.56Q99.46-1.08 99.46-1.85L99.46-1.85 99.46-32.08Q99.46-32.84 99.99-33.37L99.99-33.37Q100.55-33.93 101.31-33.93L101.31-33.93 113.03-33.93Q113.79-33.93 114.32-33.37L114.32-33.37Q114.87-32.84 114.87-32.08L114.87-32.08 114.87-1.85Q114.87-1.08 115.4-0.56L115.4-0.56Q115.96 0 116.72 0L116.72 0 119.18 0Q119.94 0 120.5-0.56L120.5-0.56Q121.03-1.08 121.03-1.85L121.03-1.85 121.03-38.23Q121.03-39.02 120.5-39.55L120.5-39.55Q119.94-40.11 119.18-40.11L119.18-40.11ZM150.06-23.14L138.34-23.14Q137.58-23.14 137.02-23.67L137.02-23.67Q136.49-24.23 136.49-24.99L136.49-24.99 136.49-32.08Q136.49-32.84 137.02-33.37L137.02-33.37Q137.58-33.93 138.34-33.93L138.34-33.93 150.06-33.93Q150.82-33.93 151.35-33.37L151.35-33.37Q151.9-32.84 151.9-32.08L151.9-32.08 151.9-24.99Q151.9-24.23 151.35-23.67L151.35-23.67Q150.82-23.14 150.06-23.14L150.06-23.14ZM156.21-40.11L132.16-40.11Q131.4-40.11 130.87-39.55L130.87-39.55Q130.31-39.02 130.31-38.23L130.31-38.23 130.31-1.85Q130.31-1.08 130.87-0.56L130.87-0.56Q131.4 0 132.16 0L132.16 0 134.62 0Q135.41 0 135.94-0.56L135.94-0.56Q136.49-1.08 136.49-1.85L136.49-1.85 136.49-15.12Q136.49-15.88 137.02-16.41L137.02-16.41Q137.58-16.96 138.34-16.96L138.34-16.96 150.06-16.96Q150.82-16.96 151.35-16.41L151.35-16.41Q151.9-15.88 151.9-15.12L151.9-15.12 151.9-1.85Q151.9-1.08 152.43-0.56L152.43-0.56Q152.99 0 153.75 0L153.75 0 156.21 0Q156.97 0 157.53-0.56L157.53-0.56Q158.06-1.08 158.06-1.85L158.06-1.85 158.06-38.23Q158.06-39.02 157.53-39.55L157.53-39.55Q156.97-40.11 156.21-40.11L156.21-40.11Z" transform="translate(-3.6600000858306885, 40.11000061035156)"></path>
            <g fill="#8c7851" transform="translate(0,43.11000061035156)">
                <g transform="scale(0.982)">
                    <path d="M8.2-6.79L8.2-27.12Q8.2-27.76 8.64-28.21L8.64-28.21Q9.11-28.68 9.76-28.68L9.76-28.68 24.87-28.68Q25.51-28.68 25.98-29.13L25.98-29.13Q26.43-29.6 26.43-30.24L26.43-30.24 26.43-32.32Q26.43-32.99 25.98-33.44L25.98-33.44Q25.51-33.91 24.87-33.91L24.87-33.91 4.53-33.91Q3.89-33.91 3.44-33.44L3.44-33.44Q2.97-32.99 2.97-32.32L2.97-32.32 2.97-1.56Q2.97-0.92 3.44-0.47L3.44-0.47Q3.89 0 4.53 0L4.53 0 24.87 0Q25.51 0 25.98-0.47L25.98-0.47Q26.43-0.92 26.43-1.56L26.43-1.56 26.43-17.98Q26.43-18.65 25.98-19.1L25.98-19.1Q25.51-19.57 24.87-19.57L24.87-19.57 16.27-19.57Q15.63-19.57 15.16-19.1L15.16-19.1Q14.71-18.65 14.71-17.98L14.71-17.98 14.71-15.9Q14.71-15.26 15.16-14.79L15.16-14.79Q15.63-14.34 16.27-14.34L16.27-14.34 19.67-14.34Q20.31-14.34 20.76-13.87L20.76-13.87Q21.23-13.42 21.23-12.78L21.23-12.78 21.23-6.79Q21.23-6.14 20.76-5.67L20.76-5.67Q20.31-5.23 19.67-5.23L19.67-5.23 9.76-5.23Q9.11-5.23 8.64-5.67L8.64-5.67Q8.2-6.14 8.2-6.79L8.2-6.79ZM51.29-32.32L51.29-6.79Q51.29-6.14 50.82-5.67L50.82-5.67Q50.38-5.23 49.73-5.23L49.73-5.23 39.83-5.23Q39.18-5.23 38.71-5.67L38.71-5.67Q38.27-6.14 38.27-6.79L38.27-6.79 38.27-32.32Q38.27-32.99 37.8-33.44L37.8-33.44Q37.35-33.91 36.68-33.91L36.68-33.91 34.6-33.91Q33.96-33.91 33.49-33.44L33.49-33.44Q33.04-32.99 33.04-32.32L33.04-32.32 33.04-1.56Q33.04-0.92 33.49-0.47L33.49-0.47Q33.96 0 34.6 0L34.6 0 54.94 0Q55.58 0 56.05-0.47L56.05-0.47Q56.5-0.92 56.5-1.56L56.5-1.56 56.5-32.32Q56.5-32.99 56.05-33.44L56.05-33.44Q55.58-33.91 54.94-33.91L54.94-33.91 52.85-33.91Q52.21-33.91 51.74-33.44L51.74-33.44Q51.29-32.99 51.29-32.32L51.29-32.32ZM68.33-33.91L65.66-33.91Q65.14-33.91 64.77-33.51L64.77-33.51Q64.4-33.14 64.4-32.62L64.4-32.62 64.4-1.26Q64.4-0.74 64.77-0.37L64.77-0.37Q65.14 0 65.66 0L65.66 0 68.33 0Q68.88 0 69.25-0.37L69.25-0.37Q69.62-0.74 69.62-1.26L69.62-1.26 69.62-32.62Q69.62-33.14 69.25-33.51L69.25-33.51Q68.88-33.91 68.33-33.91L68.33-33.91ZM99.29 0L86.79 0Q86.14 0 85.67-0.45L85.67-0.45Q85.23-0.92 85.23-1.56L85.23-1.56 85.23-3.64Q85.23-4.31 85.67-4.76L85.67-4.76Q86.14-5.23 86.79-5.23L86.79-5.23 94.09-5.23Q94.74-5.23 95.18-5.67L95.18-5.67Q95.65-6.14 95.65-6.79L95.65-6.79 95.65-27.12Q95.65-27.76 95.18-28.21L95.18-28.21Q94.74-28.68 94.09-28.68L94.09-28.68 84.19-28.68Q83.54-28.68 83.07-28.21L83.07-28.21Q82.63-27.76 82.63-27.12L82.63-27.12 82.63-1.56Q82.63-0.92 82.15-0.45L82.15-0.45Q81.71 0 81.04 0L81.04 0 78.96 0Q78.32 0 77.85-0.45L77.85-0.45Q77.4-0.92 77.4-1.56L77.4-1.56 77.4-32.32Q77.4-32.99 77.85-33.44L77.85-33.44Q78.32-33.91 78.96-33.91L78.96-33.91 99.29-33.91Q99.94-33.91 100.41-33.44L100.41-33.44Q100.85-32.99 100.85-32.32L100.85-32.32 100.85-1.56Q100.85-0.92 100.41-0.45L100.41-0.45Q99.94 0 99.29 0L99.29 0ZM132.09-30.24L132.09-32.32Q132.09-32.99 131.64-33.44L131.64-33.44Q131.17-33.91 130.53-33.91L130.53-33.91 110.19-33.91Q109.55-33.91 109.08-33.44L109.08-33.44Q108.63-32.99 108.63-32.32L108.63-32.32 108.63-1.56Q108.63-0.92 109.08-0.47L109.08-0.47Q109.55 0 110.19 0L110.19 0 130.53 0Q131.17 0 131.64-0.47L131.64-0.47Q132.09-0.92 132.09-1.56L132.09-1.56 132.09-3.64Q132.09-4.31 131.64-4.76L131.64-4.76Q131.17-5.23 130.53-5.23L130.53-5.23 115.42-5.23Q114.77-5.23 114.3-5.67L114.3-5.67Q113.86-6.14 113.86-6.79L113.86-6.79 113.86-12.78Q113.86-13.42 114.3-13.87L114.3-13.87Q114.77-14.34 115.42-14.34L115.42-14.34 126.61-14.34Q127.28-14.34 127.73-14.79L127.73-14.79Q128.2-15.26 128.2-15.9L128.2-15.9 128.2-17.98Q128.2-18.65 127.73-19.1L127.73-19.1Q127.28-19.57 126.61-19.57L126.61-19.57 115.42-19.57Q114.77-19.57 114.3-20.01L114.3-20.01Q113.86-20.48 113.86-21.13L113.86-21.13 113.86-27.12Q113.86-27.76 114.3-28.21L114.3-28.21Q114.77-28.68 115.42-28.68L115.42-28.68 130.53-28.68Q131.17-28.68 131.64-29.13L131.64-29.13Q132.09-29.6 132.09-30.24L132.09-30.24ZM160.2-30.24L160.2-32.32Q160.2-32.99 159.75-33.44L159.75-33.44Q159.28-33.91 158.64-33.91L158.64-33.91 138.3-33.91Q137.66-33.91 137.19-33.44L137.19-33.44Q136.74-32.99 136.74-32.32L136.74-32.32 136.74-15.9Q136.74-15.26 137.19-14.79L137.19-14.79Q137.66-14.34 138.3-14.34L138.3-14.34 153.44-14.34Q154.08-14.34 154.53-13.87L154.53-13.87Q155-13.42 155-12.78L155-12.78 155-6.79Q155-6.14 154.53-5.67L154.53-5.67Q154.08-5.23 153.44-5.23L153.44-5.23 138.3-5.23Q137.66-5.23 137.19-4.76L137.19-4.76Q136.74-4.31 136.74-3.64L136.74-3.64 136.74-1.56Q136.74-0.92 137.19-0.47L137.19-0.47Q137.66 0 138.3 0L138.3 0 158.64 0Q159.28 0 159.75-0.47L159.75-0.47Q160.2-0.92 160.2-1.56L160.2-1.56 160.2-17.98Q160.2-18.65 159.75-19.1L159.75-19.1Q159.28-19.57 158.64-19.57L158.64-19.57 143.53-19.57Q142.89-19.57 142.42-20.01L142.42-20.01Q141.97-20.48 141.97-21.13L141.97-21.13 141.97-27.12Q141.97-27.76 142.42-28.21L142.42-28.21Q142.89-28.68 143.53-28.68L143.53-28.68 158.64-28.68Q159.28-28.68 159.75-29.13L159.75-29.13Q160.2-29.6 160.2-30.24L160.2-30.24Z" transform="translate(-2.9700000286102295, 33.90999984741211)"></path>
                </g>
            </g>
        </g>
    </g>
</svg>